<svg xmlns="http://www.w3.org/2000/svg" viewBox="0 0 380 360" role="img" aria-label="Easter basket with decorated eggs and flowers">
  <defs>
    <linearGradient id="basketRim" x1="0" y1="0" x2="0" y2="1">
      <stop offset="0%" stop-color="#8a5a36"/>
      <stop offset="100%" stop-color="#5a361f"/>
    </linearGradient>
    <linearGradient id="basketBody" x1="0" y1="0" x2="0" y2="1">
      <stop offset="0%" stop-color="#f1d5a5"/>
      <stop offset="100%" stop-color="#c89f6b"/>
    </linearGradient>
    <linearGradient id="grass" x1="0" y1="0" x2="0" y2="1">
      <stop offset="0%" stop-color="#8fca62"/>
      <stop offset="100%" stop-color="#5ca03f"/>
    </linearGradient>
  </defs>

  <path d="M84 170c10-54 45-96 106-96s96 42 106 96" fill="none" stroke="#7a4f2f" stroke-width="16" stroke-linecap="round"/>
  <path d="M84 170c10-54 45-96 106-96s96 42 106 96" fill="none" stroke="#a6734c" stroke-width="8" stroke-linecap="round" opacity="0.62"/>

  <ellipse cx="190" cy="208" rx="132" ry="34" fill="url(#basketRim)"/>
  <ellipse cx="190" cy="204" rx="120" ry="26" fill="#6e4529"/>

  <ellipse cx="142" cy="188" rx="30" ry="38" fill="#cce670"/>
  <ellipse cx="188" cy="182" rx="32" ry="40" fill="#ffd156"/>
  <ellipse cx="233" cy="188" rx="30" ry="38" fill="#f6b1d1"/>
  <ellipse cx="270" cy="196" rx="22" ry="30" fill="#b8d9e6"/>
  <ellipse cx="112" cy="198" rx="20" ry="28" fill="#f4a6bc"/>

  <path d="M124 179c8 5 16 5 24 0M124 191c8 5 16 5 24 0" fill="none" stroke="#ffffff" stroke-width="4" stroke-linecap="round" opacity="0.68"/>
  <path d="M169 173c10 6 20 6 30 0M169 186c10 6 20 6 30 0" fill="none" stroke="#f59a1b" stroke-width="4" stroke-linecap="round"/>
  <path d="M216 181c10 6 20 6 30 0M216 194c10 6 20 6 30 0" fill="none" stroke="#ff79ad" stroke-width="4" stroke-linecap="round"/>

  <ellipse cx="190" cy="214" rx="116" ry="18" fill="url(#grass)"/>

  <path d="M84 214h212v52c0 38-40 66-106 66S84 304 84 266z" fill="url(#basketBody)" stroke="#936640" stroke-width="4"/>

  <g stroke="#a4764b" stroke-width="3" opacity="0.8">
    <path d="M92 224h196"/>
    <path d="M88 244h204"/>
    <path d="M86 264h208"/>
    <path d="M90 284h200"/>
    <path d="M98 304h184"/>
  </g>

  <g stroke="#d8b07f" stroke-width="3" opacity="0.72">
    <path d="M108 214l-8 116"/>
    <path d="M132 214l-8 120"/>
    <path d="M156 214l-6 122"/>
    <path d="M180 214l-4 122"/>
    <path d="M204 214l4 122"/>
    <path d="M228 214l6 122"/>
    <path d="M252 214l8 120"/>
    <path d="M276 214l8 116"/>
  </g>

  <circle cx="66" cy="205" r="10" fill="#ffeb61"/>
  <circle cx="57" cy="198" r="7" fill="#f6c74f"/>
  <circle cx="75" cy="197" r="7" fill="#f6c74f"/>
  <path d="M62 205c-4 6-8 10-13 13" stroke="#66a94c" stroke-width="4" fill="none" stroke-linecap="round"/>

  <circle cx="316" cy="214" r="10" fill="#ffcf58"/>
  <circle cx="307" cy="208" r="7" fill="#f4b948"/>
  <circle cx="325" cy="208" r="7" fill="#f4b948"/>
  <path d="M312 214c5 6 9 9 14 12" stroke="#66a94c" stroke-width="4" fill="none" stroke-linecap="round"/>
</svg>
